<?xml version="1.0" standalone="no"?>
<!DOCTYPE svg PUBLIC "-//W3C//DTD SVG 20010904//EN"
 "http://www.w3.org/TR/2001/REC-SVG-20010904/DTD/svg10.dtd">
<svg version="1.0" xmlns="http://www.w3.org/2000/svg"
 width="3464.000000pt" height="3464.000000pt" viewBox="0 0 3464.000000 3464.000000"
 preserveAspectRatio="xMidYMid meet">
<metadata>
Created by potrace 1.11, written by Peter Selinger 2001-2013
</metadata>
<g transform="translate(0.000000,3464.000000) scale(0.100000,-0.100000)"
fill="#000000" stroke="none">
<path d="M18485 33530 l-410 -5 -49 -30 c-71 -43 -151 -130 -166 -179 -6 -23
-22 -59 -35 -81 -13 -22 -30 -67 -38 -99 -9 -32 -23 -66 -32 -76 -9 -10 -23
-43 -31 -73 -8 -31 -28 -81 -44 -112 -17 -31 -30 -64 -30 -74 0 -9 -16 -47
-35 -85 -19 -39 -35 -79 -35 -89 0 -11 -13 -43 -29 -71 -16 -28 -32 -67 -36
-86 -4 -19 -20 -57 -35 -85 -15 -27 -33 -72 -39 -99 -7 -27 -20 -61 -31 -76
-10 -14 -26 -52 -35 -84 -9 -32 -27 -73 -40 -92 -12 -18 -26 -50 -30 -71 -3
-21 -19 -60 -35 -88 -15 -27 -31 -66 -35 -85 -4 -19 -17 -53 -30 -75 -12 -22
-30 -67 -40 -100 -9 -32 -25 -69 -35 -82 -10 -13 -24 -47 -30 -76 -7 -28 -23
-70 -35 -92 -13 -22 -30 -67 -38 -99 -9 -32 -23 -66 -32 -76 -9 -10 -23 -44
-32 -76 -8 -32 -25 -77 -38 -99 -13 -22 -29 -60 -35 -85 -7 -25 -21 -59 -31
-77 -11 -18 -26 -51 -32 -75 -8 -28 -21 -47 -37 -55 -20 -10 -1481 -13 -7115
-13 -4843 0 -7117 -3 -7173 -10 -46 -6 -104 -19 -130 -29 -26 -10 -77 -24
-115 -31 -37 -7 -77 -20 -90 -30 -12 -10 -47 -25 -77 -34 -29 -9 -63 -25 -75
-36 -11 -10 -40 -26 -64 -35 -24 -8 -58 -27 -76 -42 -17 -16 -45 -36 -61 -46
-68 -40 -194 -146 -252 -211 -9 -10 -34 -37 -55 -60 -65 -72 -75 -85 -102
-129 -14 -24 -34 -52 -45 -62 -11 -10 -20 -24 -20 -30 0 -7 -13 -29 -29 -49
-17 -21 -35 -54 -42 -74 -6 -20 -21 -53 -34 -72 -13 -19 -26 -51 -30 -70 -4
-19 -20 -66 -37 -103 -20 -46 -32 -97 -39 -160 -5 -51 -13 -99 -17 -107 -4 -8
-10 -1149 -13 -2535 -5 -1536 -11 -2559 -17 -2620 -14 -141 -14 -9438 0 -9560
7 -59 13 -1279 18 -3545 4 -1900 10 -3473 14 -3495 4 -22 11 -76 17 -120 6
-43 20 -97 31 -120 12 -22 27 -62 34 -89 7 -26 24 -65 37 -85 14 -20 30 -54
37 -76 7 -22 20 -48 29 -58 9 -11 27 -38 41 -62 84 -144 276 -362 390 -441 19
-14 49 -35 66 -47 39 -27 85 -55 134 -82 20 -11 50 -30 66 -42 17 -12 43 -25
60 -29 16 -3 48 -17 71 -30 23 -13 72 -31 110 -39 37 -9 88 -24 113 -34 25
-11 86 -24 135 -30 115 -14 29078 -15 29290 -1 108 7 155 14 205 33 36 14 85
28 110 32 25 4 63 17 85 30 22 12 64 30 92 39 29 10 55 22 59 27 3 5 29 21 57
35 29 15 60 33 70 42 10 9 33 25 52 37 98 60 291 239 373 347 70 93 102 138
121 177 12 22 25 42 30 45 5 4 18 28 27 54 10 26 28 61 40 79 12 18 25 49 29
70 4 21 19 67 35 103 22 50 32 99 45 215 16 139 17 405 17 3525 0 2865 2 3386
14 3455 12 68 14 785 13 4885 0 3225 -4 4823 -11 4860 -6 37 -11 1505 -14
4410 -3 3845 -2 4359 11 4393 19 47 19 106 1 132 -15 23 -32 74 -41 127 -5 35
-96 158 -117 158 -5 0 -31 15 -57 34 -48 33 -52 33 -178 39 -158 7 -13788 4
-14358 -3z m13950 -773 c16 -7 17 -24 13 -210 -2 -138 -8 -209 -16 -225 l-13
-22 -652 5 c-1016 9 -10860 14 -12197 7 -657 -4 -1210 -5 -1228 -3 -39 4 -51
25 -28 49 8 10 23 52 32 93 9 41 26 84 36 96 11 12 27 50 35 84 14 60 49 118
79 129 20 8 13919 4 13939 -3z m-21207 -2828 c3417 0 5982 -4 5982 -9 0 -5
-12 -22 -26 -39 -14 -17 -32 -56 -40 -86 -8 -30 -25 -65 -38 -78 -16 -16 -26
-41 -31 -76 -6 -47 -33 -91 -56 -91 -4 0 -11 -9 -14 -20 -6 -19 -15 -20 -225
-20 -218 0 -218 0 -248 25 -25 21 -40 25 -92 25 -34 0 -69 -4 -79 -10 -10 -5
-51 -16 -92 -25 -68 -15 -430 -17 -4279 -20 -6111 -6 -9297 -18 -9464 -36 -49
-5 -110 -18 -135 -29 -25 -10 -73 -26 -106 -36 -33 -9 -77 -27 -97 -40 -20
-13 -48 -26 -62 -30 -14 -3 -45 -21 -68 -40 -24 -19 -47 -34 -52 -34 -5 0 -26
-16 -48 -36 l-40 -36 -15 22 c-12 17 -15 41 -11 109 5 74 11 98 42 161 20 41
36 82 36 91 0 10 8 24 18 31 9 7 26 27 36 43 17 27 44 55 126 130 14 12 41 30
60 40 19 10 46 26 60 36 14 10 52 23 85 29 33 7 76 19 95 27 19 9 51 19 70 24
19 5 640 6 1380 4 740 -3 4037 -5 7328 -6z m18056 -2580 l44 -31 7 -226 c4
-125 4 -499 1 -832 -6 -512 -10 -607 -22 -620 -13 -13 -1377 -15 -12153 -15
-10273 0 -12140 2 -12154 14 -16 12 -17 84 -17 845 l0 831 47 35 48 35 12078
-2 12078 -2 43 -32z m-16449 -6440 c22 -15 58 -30 80 -34 22 -3 59 -19 82 -36
23 -16 46 -29 53 -29 13 0 42 -27 170 -155 113 -113 148 -156 161 -196 7 -19
22 -46 36 -60 15 -16 27 -46 32 -80 5 -31 20 -75 33 -100 20 -38 23 -58 23
-154 0 -88 -4 -116 -17 -137 -10 -15 -27 -61 -38 -104 -12 -43 -32 -90 -45
-106 -14 -16 -25 -36 -25 -44 0 -8 -16 -30 -35 -50 -19 -19 -35 -40 -35 -47 0
-16 -3418 -3434 -3453 -3453 -34 -18 -49 -11 -138 67 -56 49 -82 64 -158 90
-104 35 -119 34 -231 -5 -67 -24 -82 -34 -143 -99 -37 -39 -70 -81 -72 -92
-20 -85 -24 -160 -14 -227 19 -120 3 -97 214 -316 141 -145 1021 -1027 1192
-1195 7 -7 23 -22 35 -35 44 -45 250 -250 475 -474 125 -125 281 -280 345
-345 65 -65 218 -218 340 -340 123 -121 262 -261 310 -310 48 -48 219 -219
380 -379 161 -161 300 -300 310 -310 9 -11 27 -29 40 -42 12 -12 28 -27 33
-32 6 -6 111 -111 235 -234 297 -296 349 -355 369 -417 6 -20 23 -46 36 -59
15 -14 27 -39 31 -68 4 -25 18 -71 33 -101 22 -49 26 -69 25 -161 0 -86 -4
-113 -21 -150 -12 -26 -28 -74 -36 -108 -8 -35 -23 -72 -33 -83 -10 -12 -30
-40 -44 -64 -68 -116 -169 -228 -255 -283 -22 -14 -52 -37 -66 -50 -15 -13
-46 -28 -70 -33 -24 -6 -62 -22 -83 -37 -39 -27 -42 -27 -228 -31 -199 -3
-259 4 -309 39 -15 11 -50 25 -78 31 -28 6 -57 19 -64 28 -6 10 -25 27 -42 37
-16 11 -57 44 -89 74 -83 77 -4473 4468 -4560 4561 -124 133 -146 158 -146
172 0 8 -9 22 -20 32 -11 10 -28 44 -36 74 -9 31 -28 76 -43 101 -23 41 -26
57 -30 168 -4 151 3 200 35 247 13 20 27 57 31 81 3 28 15 53 31 69 14 14 35
48 48 75 13 28 27 50 31 50 5 0 17 13 26 30 26 42 4641 4656 4677 4675 16 8
30 19 30 24 0 4 19 16 43 26 23 10 56 31 72 46 19 17 47 29 77 33 26 4 58 16
73 27 42 33 72 38 225 36 138 -2 147 -3 185 -28z m8971 -9 c39 -10 101 -22
139 -26 53 -6 74 -13 99 -34 17 -15 46 -32 64 -38 32 -11 65 -34 142 -101 45
-39 61 -55 158 -155 31 -33 81 -82 111 -110 29 -28 61 -60 70 -70 9 -10 25
-26 35 -35 10 -9 26 -25 35 -35 9 -10 25 -26 35 -35 10 -9 26 -25 35 -35 9
-10 25 -26 35 -35 10 -9 26 -25 35 -35 9 -10 25 -26 35 -35 10 -9 26 -24 35
-35 9 -10 22 -24 29 -30 13 -10 40 -38 62 -61 40 -42 289 -290 307 -306 10 -9
25 -25 34 -35 9 -10 25 -26 35 -36 10 -9 29 -27 42 -40 12 -12 28 -29 35 -35
6 -7 204 -205 439 -440 234 -236 435 -435 445 -445 10 -9 28 -27 41 -40 12
-12 28 -29 35 -35 6 -7 131 -132 277 -278 146 -145 270 -269 275 -275 6 -5 21
-20 33 -32 13 -13 31 -31 40 -41 10 -10 150 -151 312 -313 162 -161 298 -297
303 -301 13 -14 542 -542 550 -550 114 -112 719 -731 737 -754 14 -18 31 -46
38 -62 6 -16 26 -45 42 -64 20 -23 30 -44 30 -67 0 -19 11 -49 26 -71 34 -51
48 -143 41 -273 -5 -85 -10 -111 -30 -145 -14 -23 -32 -69 -42 -102 -9 -33
-25 -69 -35 -80 -9 -11 -23 -31 -30 -45 -7 -14 -23 -36 -35 -50 -89 -98 -4661
-4669 -4703 -4702 -30 -24 -66 -55 -81 -70 -15 -14 -47 -32 -72 -38 -24 -6
-55 -22 -69 -35 -64 -61 -480 -65 -572 -6 -18 11 -54 31 -80 42 -27 12 -48 25
-48 30 0 4 -18 19 -41 32 -99 60 -212 182 -289 312 -14 24 -33 51 -42 62 -9
10 -19 36 -23 58 -4 22 -19 69 -34 105 -23 57 -26 79 -26 175 0 94 4 117 23
158 12 26 27 70 32 99 6 30 20 63 34 78 13 14 28 40 34 58 6 18 26 51 44 73
18 23 813 821 1766 1775 l1733 1735 52 -47 c29 -25 56 -52 60 -60 4 -8 25 -23
45 -34 20 -11 50 -30 65 -43 26 -20 39 -22 155 -22 l127 0 70 47 c95 64 136
116 152 192 15 73 16 150 3 230 -8 52 -17 67 -72 130 -34 39 -107 117 -163
172 -55 56 -120 127 -145 159 -53 69 -457 473 -562 563 -112 96 -3239 3230
-3278 3286 -19 27 -41 61 -49 75 -8 14 -24 38 -37 53 -12 15 -28 54 -34 85 -7
32 -22 76 -34 98 -18 34 -21 57 -21 160 0 106 3 125 23 163 12 24 25 64 29 88
3 24 21 67 39 96 19 29 34 58 34 65 0 32 281 310 337 334 25 11 56 28 70 39
15 11 41 20 61 20 19 0 73 9 121 20 156 35 175 36 267 10z"/>
</g>
</svg>
